<svg viewBox="0 0 200 200" xmlns="http://www.w3.org/2000/svg">
  <path fill="#FF6B6B" d="M45.7,-76.3C58.9,-69.3,69.1,-59.3,77.3,-47.8C85.5,-36.3,91.7,-23.3,90.4,-10.7C89.1,1.9,80.3,14.1,72.1,25.6C63.9,37.1,56.3,47.9,46.7,56.8C37.1,65.7,25.5,72.7,13.1,74.8C0.7,76.9,-12.5,74.1,-24.8,68.9C-37.1,63.7,-48.5,56.1,-58.3,46.4C-68.1,36.7,-76.3,24.9,-79.8,11.8C-83.3,-1.3,-82.1,-15.7,-75.4,-28.1C-68.7,-40.5,-56.5,-50.9,-44.1,-58.3C-31.7,-65.7,-19.1,-70.1,-6.1,-71.1C6.9,-72.1,13.8,-79.7,32.5,-83.3L45.7,-76.3Z" transform="translate(100 100)" />
</svg>