<svg width="24" height="24" viewBox="0 0 24 24" fill="none" xmlns="http://www.w3.org/2000/svg">
  <path fill-rule="evenodd" clip-rule="evenodd" d="M12 2C6.477 2 2 6.477 2 12C2 17.523 6.477 22 12 22C17.523 22 22 17.523 22 12C22 6.477 17.523 2 12 2ZM15.5 10C16.3284 10 17 9.32843 17 8.5C17 7.67157 16.3284 7 15.5 7C14.6716 7 14 7.67157 14 8.5C14 9.32843 14.6716 10 15.5 10ZM10 8.5C10 9.32843 9.32843 10 8.5 10C7.67157 10 7 9.32843 7 8.5C7 7.67157 7.67157 7 8.5 7C9.32843 7 10 7.67157 10 8.5ZM12 17C14.6363 17 16.8429 15.2246 17.5868 12.8363L15.6756 12.2409C15.1524 13.8964 13.7043 15 12 15C10.2957 15 8.84756 13.8964 8.3244 12.2409L6.41316 12.8363C7.15714 15.2246 9.36375 17 12 17Z" fill="#FFFFFF"/>
</svg>